<?xml version="1.0" encoding="utf-8"?>
<!-- Generator: Adobe Illustrator 27.9.0, SVG Export Plug-In . SVG Version: 6.00 Build 0)  -->
<svg version="1.1" id="Layer_1" xmlns="http://www.w3.org/2000/svg" xmlns:xlink="http://www.w3.org/1999/xlink" x="0px" y="0px"
	 viewBox="0 0 1080 1080" style="enable-background:new 0 0 1080 1080;" xml:space="preserve">
<style type="text/css">
	.st0{fill-rule:evenodd;clip-rule:evenodd;fill:#FFFFFF;}
	.st1{fill-rule:evenodd;clip-rule:evenodd;fill:#1777F2;}
</style>
<g id="Layer_2_00000108989796112572381290000002232847286719478916_">
	<rect x="305.4" y="59.2" class="st0" width="615.6" height="1020.8"/>
</g>
<g id="Layer_1_00000131346251922575999740000009466883202148302217_" xmlns:serif="http://www.serif.com/">
	<path class="st1" d="M948.1,0c72.8,0,131.9,59.1,131.9,131.9V948c0,72.8-59.1,131.9-131.9,131.9H723.5V673.1H864l26.7-174.3H723.5
		V385.7c0-47.7,23.4-94.2,98.3-94.2h76V143.2c0,0-69-11.8-135-11.8c-137.7,0-227.7,83.5-227.7,234.6v132.8H382v174.3h153.1V1080
		H131.9C59.1,1080,0,1020.9,0,948.1V131.9C0,59.1,59.1,0,131.9,0H948.1L948.1,0z"/>
</g>
</svg>
